<?xml version="1.0" encoding="UTF-8"?>
<svg id="Layer_1" data-name="Layer 1" xmlns="http://www.w3.org/2000/svg" viewBox="0 0 500 500">
  <defs>
    <style>
      .cls-1 {
        fill: #000;
        stroke-width: 0px;
      }
    </style>
  </defs>
  <path class="cls-1" d="M299.05,135.63c.46,8.13-1.38,16.07-2.28,24.07-1.21,10.71-1.86,21.22,2.52,31.42.77,1.8.89,3.75.81,5.69-.32,8.08.58,16.14.2,24.24-.16,3.49.78,7.15,1.83,10.55,5.29,17.13,5.3,34.29,1.52,51.73-1.56,7.23-2.1,14.72-3.31,22.03-1.54,9.34-2.41,18.87-5.54,27.91-2.53,7.32-1.99,14.98-2.33,22.5-.56,12.58.27,25.12,1.23,37.68.61,8,.54,16.29-.97,24.12-1.13,5.88-1.16,11.86-2.51,17.66-.14.62-.26,1.35-.06,1.91,2.63,7.71-1.82,14.35-3.01,21.5-1.53,9.19-1.63,18.42,7.97,24.07,3.62,2.13,5.09,6.79,9.72,7.77,1.51.32,1.36,2.03.58,3.26-1.2,1.89-2.67,3.59-5.01,3.93-6.1.91-12.09,3.62-18.42,1.23-.33-.13-.82-.14-1.13.01-5.94,3-10.95-1.06-16.31-2.22-2.96-.64-2.54-2.94-1.32-4.86,5.6-8.88,3.63-18.62,1.48-27.51-1.21-5-2.51-9.69-2.2-14.81.04-.63.03-1.35-.22-1.9-2.85-6.13-2.25-12.83-3.29-19.26-.33-2.02-.43-4.16-1.57-5.93-1.26-1.97-1.46-4.11-1.26-6.31.5-5.73.82-11.46,1.11-17.2.26-5.32,1-10.67,1.06-16.04.01-1.16.07-2.32-.03-3.47-.29-3.34-4.83-6.69-4.03-7.92,2.25-3.45.9-6.08.18-9.09-1.13-4.67-1.11-9.52-.89-14.18.57-12.34-.4-24.66.12-36.98.05-1.3.05-2.8-1.57-3.13-1.77-.36-2.4,1.14-3.01,2.42-.22.45-.48,1.04-.37,1.47,1.43,5.72-.98,11.17-1.23,16.78-.33,7.39-1.51,14.74-1.5,22.17,0,1.22-.81,2.08-1.39,3.09-4.14,7.22-8.2,14.39-7.88,23.24.31,8.65-1.48,17.33-.58,25.96,1.06,10.27-2.08,19.76-4.33,29.46-1.12,4.82-3.1,9.62-.91,14.68.17.4.06,1.07-.17,1.46-3.44,5.87-2.86,11.97-2.24,18.51.64,6.8,1.98,13.65,1.31,20.57-.24,2.55-1.23,4.3-3.8,5.19-5.83,2.02-10.1.61-13.39-4.7-1.3-2.1-2.89-3.95-4.71-5.58-2.03-1.83-2.76-3.24.65-4.16,2.1-.57,2.58-1.99,1.68-3.86-3.98-8.29-3.1-17.64-5.8-26.21-3.54-11.28-3.1-23.1-4.35-34.65-.95-8.8,1.05-17.8,1.96-26.71.81-7.85,3.61-15.2,4.31-23.03.56-6.29-.78-12.59.33-18.83,1.09-6.14,1.09-12.46.17-18.39-1.33-8.64-.64-17.62-3.84-25.97-.09-.24-.31-.54-.24-.71,3.23-8.15-3.25-15.36-2.26-23.29.08-.62.14-1.44-.18-1.89-2.64-3.72-2.03-7.17.67-10.53.22-.28.44-.83.32-1.07-2.99-5.72,2.18-10.05,2.59-15.21.51-6.35,1.95-12.56,2.44-18.96.72-9.39-.94-18.8.96-28.17.73-3.61,2.11-6.91,3.49-10.15,4.16-9.71,3.04-19.37.62-29.13-1.17-4.72-2.41-9.37-2.95-14.29-.59-5.28-2.34-10.49-4.13-15.54-.91-2.55.24-5.14-1.49-7.74-5.17-7.75-12.45-11.69-21.27-13.54-8.62-1.81-17.08-4.46-25.64-6.32-6.55-1.43-12.69-4.95-19.44-4.74-5.72.18-11.38-.58-17.08-.35-.9.04-1.86.48-2.67.27-10.6-2.73-21.65-2.02-32.35-4.49-8.65-2-17.13-4.55-25.55-7.17-4.22-1.31-8.04-1.65-12.25-1.27-3.58.33-7.11-.34-10.68-1.03-6.51-1.25-13.1-2.56-19.78-2.03-4.92.39-8.87-2.39-13.26-3.65-2.42-.7-1.15-2.8.6-3.58,3.75-1.67,7.57-3.22,11.66-3.92,4.68-.8,9.39-1.49,14.04-2.44,3.66-.74,7.15.43,10.74.53,10,.26,20.01-.17,29.99.11,8.73.24,17.42-.36,26.13-.22,2.45.04,4.86-.16,7.29-.49,8.36-1.14,16.6-1,24.23,3.36.66.38,1.44.77,2.16.76,8.22-.12,16.24,2.68,24.52,1.7,3.73-.44,6.93,1.62,10.47,2.12,6.22.88,11.94-1.49,17.78-2.7,7.85-1.63,15.55-2.35,23.55-1.14,4.78.73,9.73.38,14.6.88,3.96.4,7.62-1.38,10.89-3.41,3.13-1.95,2.14-5.55,1.43-8.15-1.1-4.01-1.02-8.75-5.57-11.3-1.71-.96-1.87-3.38-2.03-5.26-.37-4.51-1.61-8.83-2.44-13.24-.22-1.15-.38-2.3-1.19-3.21-1.67-1.88-1.94-3.83-.44-5.95.29-.41.63-1.02.52-1.42-1.47-5.38,2.42-7.26,6.07-9.11,2.2-1.11,2.13-4.13,4.05-4.9,5.13-2.04,9.87-4.72,14.67-7.38,7.46-4.13,14.07.5,20.89,2.46,2.3.66,2.5,3.17,3.09,5.04,1.54,4.89,2.82,9.87,4.21,14.81,1,3.56,1.81,7.12,3.47,10.54,2.44,5.03,1.31,10.26-.94,15.23-3.51,7.77-4.65,15.96-4.32,24.41.09,2.21,1.97,2.72,3.55,2.88,4.06.4,8.04,1.3,12.24.56,8.28-1.45,16.45.29,24.61,1.56,7.5,1.17,13.95,5.74,21.69,6.37,14.45,1.18,28.85,2.55,43.35.37,11.56-1.73,23,.25,34.43,1.78,6.37.85,12.75.95,19.18.17,3.13-.38,6.42.03,9.57.5,8.46,1.24,16.97.74,25.43.57,6.24-.13,11.94,1.24,17.58,3.53,3.69,1.5,7.41,2.94,11.09,4.47,1.46.61,2.77,1.52,2.69,3.38-.08,1.87-1.15,3.12-2.78,3.85-2.49,1.11-5.18,1.68-7.86,1.82-11.79.58-23.64.83-35.35-.23-5.67-.51-11.09-1.12-16.69.06-2.93.62-5.65,1.54-8.28,2.97-5.12,2.79-10.74,3.68-16.49,4.3-9.44,1.01-18.9,1.33-28.35.82-5.63-.31-11.28-.3-16.88-.4-5.16-.08-10.46.05-15.64.64-3.48.39-6.93.25-10.38.33-7.13.16-14.05,1.26-20.77,3.61-2.26.79-4.33-.14-6.45-.47-9.4-1.45-10.18-.94-12.42,8.1-.81,3.27-1.25,6.56-1.06,9.93Z"/>
</svg>